<?xml version="1.0" encoding="UTF-8"?>
<svg version="1.1" xmlns="http://www.w3.org/2000/svg" width="225" height="225">
<path d="M0 0 C74.25 0 148.5 0 225 0 C225 74.25 225 148.5 225 225 C150.75 225 76.5 225 0 225 C0 150.75 0 76.5 0 0 Z " fill="#FEFEFE" transform="translate(0,0)"/>
<path d="M0 0 C32.01 0 64.02 0 97 0 C97 16.5 97 33 97 50 C71.26 50 45.52 50 19 50 C19 58.25 19 66.5 19 75 C5.47 75 -8.06 75 -22 75 C-22.33 70.05 -22.66 65.1 -23 60 C-25.43175922 56.58618417 -27.05994166 54.6796201 -30 52 C-31.65 50.02 -33.3 48.04 -35 46 C-35.33 51.94 -35.66 57.88 -36 64 C-37.98 64 -39.96 64 -42 64 C-42 54.76 -42 45.52 -42 36 C-35 36 -35 36 -32.453125 38.046875 C-31.72609375 38.93890625 -30.9990625 39.8309375 -30.25 40.75 C-29.51265625 41.63171875 -28.7753125 42.5134375 -28.015625 43.421875 C-26.31729505 45.59415749 -24.65442706 47.79409725 -23 50 C-22.67 41.75 -22.34 33.5 -22 25 C-14.74 25 -7.48 25 0 25 C0 16.75 0 8.5 0 0 Z " fill="#4DBFE7" transform="translate(118,72)"/>
<path d="M0 0 C28.38 0 56.76 0 86 0 C86 8.58 86 17.16 86 26 C84.35 24.35 82.7 22.7 81 21 C80.01773438 20.03513672 80.01773438 20.03513672 79.015625 19.05078125 C78.43296875 18.47714844 77.8503125 17.90351562 77.25 17.3125 C76.36054688 16.44044922 76.36054688 16.44044922 75.453125 15.55078125 C74 14 74 14 73 12 C70.69 11.67 68.38 11.34 66 11 C66 20.24 66 29.48 66 39 C67.98 39 69.96 39 72 39 C72 32.73 72 26.46 72 20 C73.65 21.65 75.3 23.3 77 25 C77.72703125 25.71542969 78.4540625 26.43085937 79.203125 27.16796875 C79.87859375 27.83441406 80.5540625 28.50085938 81.25 29.1875 C81.93578125 29.86167969 82.6215625 30.53585938 83.328125 31.23046875 C88.69248385 36.90816631 86 39.72671121 86 50 C57.62 50 29.24 50 0 50 C0 33.5 0 17 0 0 Z " fill="#FCB604" transform="translate(10,97)"/>
<path d="M0 0 C6.27 0 12.54 0 19 0 C19.44020962 7.4835636 19.44020962 7.4835636 19 11 C16.5625 12.75 16.5625 12.75 14 14 C12.6690684 17.39969811 12.6690684 17.39969811 13 21 C16.26523567 24.57135152 20.77986683 26.68306414 25 29 C24.125 32.875 24.125 32.875 23 34 C18.76685233 34.23961213 15.63263511 34.32488647 12 32 C12 33.65 12 35.3 12 37 C14.31 37.66 16.62 38.32 19 39 C19 50.88 19 62.76 19 75 C5.47 75 -8.06 75 -22 75 C-22.33 70.05 -22.66 65.1 -23 60 C-25.43175922 56.58618417 -27.05994166 54.6796201 -30 52 C-31.65 50.02 -33.3 48.04 -35 46 C-35.33 51.94 -35.66 57.88 -36 64 C-37.98 64 -39.96 64 -42 64 C-42 54.76 -42 45.52 -42 36 C-35 36 -35 36 -32.453125 38.046875 C-31.72609375 38.93890625 -30.9990625 39.8309375 -30.25 40.75 C-29.51265625 41.63171875 -28.7753125 42.5134375 -28.015625 43.421875 C-26.31729505 45.59415749 -24.65442706 47.79409725 -23 50 C-22.67 41.75 -22.34 33.5 -22 25 C-14.74 25 -7.48 25 0 25 C0 16.75 0 8.5 0 0 Z " fill="#645DC7" transform="translate(118,72)"/>
<path d="M0 0 C14.85 0 29.7 0 45 0 C45 8.58 45 17.16 45 26 C43.35 24.35 41.7 22.7 40 21 C39.34515625 20.35675781 38.6903125 19.71351562 38.015625 19.05078125 C37.43296875 18.47714844 36.8503125 17.90351562 36.25 17.3125 C35.65703125 16.73113281 35.0640625 16.14976563 34.453125 15.55078125 C33 14 33 14 32 12 C29.69 11.67 27.38 11.34 25 11 C25 20.24 25 29.48 25 39 C26.98 39 28.96 39 31 39 C31 32.73 31 26.46 31 20 C32.65 21.65 34.3 23.3 36 25 C36.72703125 25.71542969 37.4540625 26.43085937 38.203125 27.16796875 C38.87859375 27.83441406 39.5540625 28.50085938 40.25 29.1875 C40.93578125 29.86167969 41.6215625 30.53585938 42.328125 31.23046875 C47.69248385 36.90816631 45 39.72671121 45 50 C30.15 50 15.3 50 0 50 C0 45.38 0 40.76 0 36 C1.65 36.66 3.3 37.32 5 38 C7.197919 38.31132861 7.197919 38.31132861 9.375 38.25 C10.43847656 38.25773437 10.43847656 38.25773437 11.5234375 38.265625 C14.80727695 37.98464785 14.80727695 37.98464785 21 36 C21 27.75 21 19.5 21 11 C19.02 11 17.04 11 15 11 C15 18.26 15 25.52 15 33 C11.95016004 34.52491998 9.3576631 34.23562548 6 34 C4.2956543 32.77612305 4.2956543 32.77612305 3 31 C2.65942383 28.82348633 2.65942383 28.82348633 2.70703125 26.33203125 C2.71669922 25.43935547 2.72636719 24.54667969 2.73632812 23.62695312 C2.76146484 22.69818359 2.78660156 21.76941406 2.8125 20.8125 C2.83280273 19.40194336 2.83280273 19.40194336 2.85351562 17.96289062 C2.88886904 15.64134962 2.93821326 13.32096347 3 11 C2.01 11 1.02 11 0 11 C0 7.37 0 3.74 0 0 Z " fill="#E61E76" transform="translate(51,97)"/>
<path d="M0 0 C12.54 0 25.08 0 38 0 C38 3.3 38 6.6 38 10 C36.68 10 35.36 10 34 10 C34 17.59 34 25.18 34 33 C30.7 33 27.4 33 24 33 C22 31 22 31 21.77294922 28.84521484 C21.78342285 27.97590332 21.79389648 27.1065918 21.8046875 26.2109375 C21.81113281 25.26992187 21.81757813 24.32890625 21.82421875 23.359375 C21.84097656 22.37453125 21.85773438 21.3896875 21.875 20.375 C21.88402344 19.38242188 21.89304688 18.38984375 21.90234375 17.3671875 C21.92595884 14.91121866 21.95889201 12.45572832 22 10 C20.02 10 18.04 10 16 10 C16.08120706 13.39678803 16.19402019 16.79182382 16.3125 20.1875 C16.33505859 21.14720703 16.35761719 22.10691406 16.38085938 23.09570312 C16.56949882 30.07864662 16.56949882 30.07864662 20 36 C22.82644475 37.92475686 25.05687615 38.25194863 28.4375 38.1875 C29.17871094 38.18105469 29.91992188 38.17460938 30.68359375 38.16796875 C33.46804659 38.01445038 33.46804659 38.01445038 38 37 C38 40.96 38 44.92 38 49 C25.46 49 12.92 49 0 49 C0 45.7 0 42.4 0 39 C-2.31 38.67 -4.62 38.34 -7 38 C-8.125 34.25 -8.125 34.25 -7 32 C-6.484375 32.165 -5.96875 32.33 -5.4375 32.5 C-2.26636124 33.15049 0.77218334 33.0620734 4 33 C4.33 31.68 4.66 30.36 5 29 C4.07767578 28.51080078 4.07767578 28.51080078 3.13671875 28.01171875 C1.92435547 27.35623047 1.92435547 27.35623047 0.6875 26.6875 C-0.11300781 26.25824219 -0.91351563 25.82898438 -1.73828125 25.38671875 C-3.88652219 24.0695762 -5.45730295 22.9884764 -7 21 C-6.93064501 17.11612073 -6.86399525 14.86399525 -4.0625 12.0625 C-2 11 -2 11 0 11 C0 7.37 0 3.74 0 0 Z " fill="#1A99DC" transform="translate(137,72)"/>
<path d="M0 0 C14.89189189 0 14.89189189 0 19 4 C22.19909526 7.73227781 22.46624129 11.10789149 22.28515625 15.85546875 C21.70577496 20.2127335 19.68085619 22.38722943 16.5 25.25 C10.76474501 29.26467849 8.12337969 28 0 28 C0 18.76 0 9.52 0 0 Z " fill="#F6F6FB" transform="translate(104,108)"/>
<path d="M0 0 C1.98 0 3.96 0 6 0 C6 3.63 6 7.26 6 11 C9.96 11 13.92 11 18 11 C18 7.37 18 3.74 18 0 C19.65 0 21.3 0 23 0 C23 9.24 23 18.48 23 28 C21.02 28 19.04 28 17 28 C17 24.37 17 20.74 17 17 C13.37 17 9.74 17 6 17 C6 20.63 6 24.26 6 28 C4.02 28 2.04 28 0 28 C0 18.76 0 9.52 0 0 Z " fill="#FEFBF4" transform="translate(21,108)"/>
<path d="M0 0 C1.98 0 3.96 0 6 0 C6.02505615 0.63091553 6.0501123 1.26183105 6.07592773 1.91186523 C6.19154137 4.75396825 6.31442316 7.59571083 6.4375 10.4375 C6.47681641 11.43072266 6.51613281 12.42394531 6.55664062 13.44726562 C6.59853516 14.39150391 6.64042969 15.33574219 6.68359375 16.30859375 C6.72025146 17.18314209 6.75690918 18.05769043 6.79467773 18.95874023 C6.78181066 20.9927402 6.78181066 20.9927402 8 22 C11.3 22.33 14.6 22.66 18 23 C18 15.74 18 8.48 18 1 C19.98 1 21.96 1 24 1 C24 9.25 24 17.5 24 26 C17.77710757 28.6669539 14.4358224 30.06483607 8 29 C3.91965317 26.92273252 1.66659086 25.24622519 0 21 C-0.22705078 18.61816406 -0.22705078 18.61816406 -0.1953125 16.015625 C-0.18886719 15.08105469 -0.18242187 14.14648438 -0.17578125 13.18359375 C-0.15902344 12.21550781 -0.14226562 11.24742188 -0.125 10.25 C-0.11597656 9.26644531 -0.10695312 8.28289062 -0.09765625 7.26953125 C-0.07412785 4.84610593 -0.04125368 2.42317778 0 0 Z " fill="#EFF7FC" transform="translate(153,82)"/>
<path d="M0 0 C2.97 0.495 2.97 0.495 6 1 C6.01981934 1.59538574 6.03963867 2.19077148 6.06005859 2.80419922 C6.15516126 5.49492153 6.26489842 8.18485148 6.375 10.875 C6.4059375 11.81214844 6.436875 12.74929687 6.46875 13.71484375 C6.50742187 14.61074219 6.54609375 15.50664063 6.5859375 16.4296875 C6.6173584 17.25710449 6.6487793 18.08452148 6.68115234 18.93701172 C6.82599137 21.21986085 6.82599137 21.21986085 9 23 C11.97 23 14.94 23 18 23 C18 15.74 18 8.48 18 1 C19.98 1 21.96 1 24 1 C24 9.25 24 17.5 24 26 C17.76445807 28.67237511 14.44423846 30.05451175 8 29 C4.69663388 27.37834754 2.69456834 26.20548811 0.84765625 23 C-0.40602092 18.56302274 -0.2092388 14.27203491 -0.125 9.6875 C-0.11597656 8.75615234 -0.10695312 7.82480469 -0.09765625 6.86523438 C-0.07418263 4.5765564 -0.04134729 2.28841328 0 0 Z " fill="#FEF7F4" transform="translate(48,107)"/>
<path d="M0 0 C7 0 7 0 9.37109375 1.87109375 C10.05300781 2.71800781 10.73492187 3.56492187 11.4375 4.4375 C14.76453388 8.51118637 14.76453388 8.51118637 18.3515625 12.3515625 C22.12816367 16.12816367 24.49138759 18.55055461 24.5 24.0625 C24.335 25.361875 24.17 26.66125 24 28 C17.24523229 23.08744166 12.30980559 16.3717667 7 10 C6.67 15.94 6.34 21.88 6 28 C4.02 28 2.04 28 0 28 C0 18.76 0 9.52 0 0 Z " fill="#FBF4F8" transform="translate(76,108)"/>
<path d="M0 0 C1.98 0 3.96 0 6 0 C6 9.57 6 19.14 6 29 C0 29 0 29 -2.78125 26.62109375 C-3.70550383 25.5755389 -4.61118038 24.5133391 -5.5 23.4375 C-5.9741333 22.88537842 -6.4482666 22.33325684 -6.93676758 21.7644043 C-7.87464373 20.67115178 -8.80688414 19.57303457 -9.73291016 18.46972656 C-10.78281195 17.2519214 -11.90492411 16.09680614 -13.04296875 14.9609375 C-16.28368002 11.71252858 -17.33880193 9.72481182 -17.375 5.0625 C-17.27987996 3.70590701 -17.16528674 2.34984171 -17 1 C-15.87695294 2.12304706 -14.75425636 3.24644577 -13.6328125 4.37109375 C-12.42431899 5.57669613 -11.2098497 6.77631499 -9.9921875 7.97265625 C-9.29351562 8.66230469 -8.59484375 9.35195312 -7.875 10.0625 C-6.88113281 11.03896484 -6.88113281 11.03896484 -5.8671875 12.03515625 C-4 14 -4 14 -1 18 C-0.67 12.06 -0.34 6.12 0 0 Z " fill="#F5FBFD" transform="translate(198,82)"/>
<path d="M0 0 C1.06605469 0.01546875 2.13210937 0.0309375 3.23046875 0.046875 C5.8125 0.25 5.8125 0.25 6.8125 1.25 C6.8125 2.9 6.8125 4.55 6.8125 6.25 C3.1825 6.25 -0.4475 6.25 -4.1875 6.25 C-3.50602627 9.34033594 -3.50602627 9.34033594 -1.19140625 10.53125 C-0.38574219 10.9334375 0.41992188 11.335625 1.25 11.75 C4.57198619 13.41365921 5.68664755 14.06122132 7.8125 17.25 C8.25 20.1875 8.25 20.1875 7.8125 23.25 C3.57411139 27.37685206 0.74720109 28.47162751 -5.14453125 28.41796875 C-7.75662191 28.20320795 -9.85346184 27.41701908 -12.1875 26.25 C-11.8575 24.6 -11.5275 22.95 -11.1875 21.25 C-10.671875 21.415 -10.15625 21.58 -9.625 21.75 C-6.45386124 22.40049 -3.41531666 22.3120734 -0.1875 22.25 C0.1425 20.93 0.4725 19.61 0.8125 18.25 C-0.10982422 17.76080078 -0.10982422 17.76080078 -1.05078125 17.26171875 C-2.26314453 16.60623047 -2.26314453 16.60623047 -3.5 15.9375 C-4.30050781 15.50824219 -5.10101563 15.07898438 -5.92578125 14.63671875 C-8.07402219 13.3195762 -9.64480295 12.2384764 -11.1875 10.25 C-11.07871197 4.15787013 -11.07871197 4.15787013 -8.515625 1.546875 C-5.51594092 -0.12408996 -3.41425193 -0.08317301 0 0 Z " fill="#F1F6FB" transform="translate(141.1875,82.75)"/>
<path d="M0 0 C7 0 7 0 8.9375 1.5625 C10.41872356 4.96060112 10.45113794 7.32644824 10 11 C8.375 13.9375 8.375 13.9375 6 16 C4.02 16 2.04 16 0 16 C0 10.72 0 5.44 0 0 Z " fill="#635CC6" transform="translate(110,114)"/>
<path d="M0 0 C1.98 0.99 3.96 1.98 6 3 C5.67 4.32 5.34 5.64 5 7 C3.35 7.33 1.7 7.66 0 8 C0 5.36 0 2.72 0 0 Z " fill="#209CDD" transform="translate(137,98)"/>
</svg>
