<?xml version="1.0" encoding="UTF-8"?>
<svg version="1.1" xmlns="http://www.w3.org/2000/svg" width="40" height="40">
<path d="M0 0 C1.36328125 1.375 1.36328125 1.375 3.17578125 3.75 C0.11460557 6.37386487 -0.55595002 6.75 -4.82421875 6.75 C-4.32921875 7.100625 -3.83421875 7.45125 -3.32421875 7.8125 C-1.00330499 10.81034694 -1.37308009 13.07644233 -1.82421875 16.75 C-3.38671875 19.1875 -3.38671875 19.1875 -5.82421875 20.75 C-9.2817232 21.17460581 -11.65589067 21.45099685 -14.69921875 19.625 C-17.13184122 15.57062922 -16.98030916 12.3951737 -15.88671875 7.875 C-15.53609375 6.84375 -15.18546875 5.8125 -14.82421875 4.75 C-15.81421875 5.08 -16.80421875 5.41 -17.82421875 5.75 C-17.82421875 3.11 -17.82421875 0.47 -17.82421875 -2.25 C-12.00816129 -3.70401436 -5.09698908 -3.49258352 0 0 Z " fill="#11CDF9" transform="translate(30.82421875,3.25)"/>
<path d="M0 0 C0.66 0 1.32 0 2 0 C5.44061821 6.13327595 6.68127378 11.10715679 5.0625 18 C3.15817833 23.60195075 0.16153404 27.10347845 -5 30 C-9.80589209 31.52110091 -14.1476675 32.61744417 -19 31 C-18.67 27.37 -18.34 23.74 -18 20 C-17.34 20 -16.68 20 -16 20 C-15.67 21.65 -15.34 23.3 -15 25 C-10.56701813 23.83492143 -6.9235917 22.81095856 -3.4375 19.75 C-1.23471828 15.53598279 -1.5000132 11.90904051 -2.6875 7.375 C-3 5 -3 5 -1.6875 2.1875 C-1.130625 1.465625 -0.57375 0.74375 0 0 Z " fill="#FFCD02" transform="translate(34,8)"/>
<path d="M0 0 C1.45875121 2.91750241 0.67830287 4.85514122 0 8 C-0.33 8.763125 -0.66 9.52625 -1 10.3125 C-2.85729725 15.30398636 -3.7944612 20.05357007 -1.75 25.0625 C-1.1725 25.701875 -0.595 26.34125 0 27 C0.99 27 1.98 27 3 27 C2.67 29.97 2.34 32.94 2 36 C-3.24386865 34.61191712 -6.0554083 31.35480279 -9 27 C-11.31293392 21.5696334 -11.50343086 16.65483996 -10 11 C-7.72193245 5.94251412 -5.16571066 2.36146773 0 0 Z " fill="#FF4800" transform="translate(11,2)"/>
</svg>
